<svg xmlns="http://www.w3.org/2000/svg" viewBox="0 0 64 64">
  <rect width="64" height="64" rx="14" fill="#34432b"/>
  <g transform="translate(8.8 5.5) scale(0.485)">
    <path d="M43 15 37 7M53 15l6-8" stroke="#f4eddf" stroke-width="3.2" stroke-linecap="round"/>
    <circle cx="36" cy="6" r="3.8" fill="#f4eddf"/>
    <circle cx="60" cy="6" r="3.8" fill="#f4eddf"/>
    <path d="M48 12l10.4 6v12L48 36l-10.4-6V18L48 12Z" fill="#f4eddf"/>
    <path d="M22 38l12.1 7v14L22 66 9.9 59V45L22 38Z" fill="#d9a63f"/>
    <path d="M74 38l12.1 7v14L74 66l-12.1-7V45L74 38Z" fill="#f4eddf"/>
    <path d="M48 38l17.3 10v20L48 78 30.7 68V48L48 38Z" fill="#f4eddf"/>
    <path d="M48 80l13.9 8v16l-13.9 8-13.9-8V88l13.9-8Z" fill="#d9a63f"/>
  </g>
</svg>
